<svg t="1579401367577" class="icon" viewBox="0 0 1024 1024" version="1.1" xmlns="http://www.w3.org/2000/svg" p-id="10768" width="200" height="200"><path d="M512.059417 0a511.992522 511.992522 0 1 0 511.940591 511.94059A511.94059 511.94059 0 0 0 512.059417 0zM401.081831 826.178013a40.402696 40.402696 0 0 1 1.246356-80.753461 40.402696 40.402696 0 1 1-1.246356 80.753461z m324.000543 0a40.350765 40.350765 0 1 1 40.610422-40.454628 40.714285 40.714285 0 0 1-40.610422 40.454628z m102.980137-457.983776c-6.127915 31.158892-12.515488 62.785167-18.279884 94.255647-6.751093 37.234876-12.827077 74.573614-19.422375 111.860421-5.712463 32.301384-26.536989 49.231049-61.746537 49.282981H372.415651a394.679295 394.679295 0 0 0 7.997449 39.467929 19.993622 19.993622 0 0 0 11.89231 10.022777 52.606595 52.606595 0 0 0 16.981596 0.830904h341.137933a77.897229 77.897229 0 0 1 13.96957 0.36352 18.539541 18.539541 0 0 1 16.77387 19.266581 18.331815 18.331815 0 0 1-16.462282 19.474308 62.317783 62.317783 0 0 1-12.463556 0.36352h-342.747809a129.413263 129.413263 0 0 1-15.579446-0.623178c-32.405247-3.894861-47.828899-17.760568-53.385567-50.737062-11.424927-68.549562-21.967019-137.254918-32.872631-205.856411q-15.787172-100.539357-31.522412-201.182577c-1.40215-9.191873-4.829628-13.865707-14.956268-13.138666s-20.772594 0-31.158892 0-20.097485-1.298287-23.940415-12.879009 1.713739-19.941691 11.269133-25.965743h65.433672c16.098761 8.568695 28.718112 19.57817 31.158892 39.312135 2.025328 16.462281 6.28371 32.612973 7.893586 49.075255 1.40215 13.761844 7.270408 17.397048 20.772594 17.345116 139.176383-0.519315 278.300834 0.36352 417.425286-0.830904 30.639577-0.311589 53.177842 8.309038 67.926384 35.313411z" fill="#ffb923" p-id="10769"></path><path d="M762.628838 346.902327H329.883764c0.571246 4.725765 0.830904 7.270408 1.194424 9.76312 11.89231 72.132834 24.200073 144.161806 35.157616 216.450434 1.921465 12.515488 5.193149 16.098761 17.916363 16.046829 112.639393-0.467383 225.278787 0 337.866249 0 25.49836 0 30.483782-4.621902 34.378644-29.549015q14.436953-92.178388 29.497084-184.252913c4.258382-26.277332 2.700437-28.458454-23.265306-28.458455z" fill="#ffb923" p-id="10770"></path></svg>